PathFileType	4	(X/Y/Z)	D:\TRACE\spotREDO_2-26-24\spot_justBody_Motion_3_3-platform.trc
DataRate	CameraRate	NumFrames	NumMarkers	Units	OrigDataRate	OrigDataStartFrame	OrigNumFrames
100.00	100.00	      48	5	mm	100.00	876	      7000
Frame#	Time	Left_Front			Right_Front			Left_Aft			Right_Aft			Post			
		X1	Y1	Z1	X2	Y2	Z2	X3	Y3	Z3	X4	Y4	Z4	X5	Y5	Z5	

876	8.750	-678.74316	-24.87801	-580.70264	736.32983	-13.30001	-496.10623	-750.29755	26.02979	636.84717	820.31494	33.79691	641.02441	30.93279	587.18127	-1009.34039	
877	8.760	-678.59766	-24.86599	-580.69153	736.40088	-13.21709	-496.06778	-750.20239	25.86755	636.93744	820.35742	33.67514	641.01318	30.88525	587.40466	-1009.10925	
878	8.770	-678.51764	-24.84101	-580.70056	736.42438	-13.22610	-496.05365	-750.06830	25.76872	636.94989	820.47424	33.64887	640.97998	30.89536	587.65350	-1008.85693	
879	8.780	-678.47845	-24.77108	-580.70746	736.48309	-13.14250	-496.05780	-750.01239	25.85369	636.93005	820.49622	33.70817	641.03058	31.29505	587.93201	-1008.37561	
880	8.790	-678.46375	-24.65363	-580.70465	736.55670	-13.05087	-496.04541	-749.96832	25.78493	636.89081	820.49408	33.60878	641.03363	30.89845	588.11206	-1008.41632	
881	8.800	-678.33600	-24.51840	-580.67169	736.57758	-12.97890	-496.02136	-749.77856	25.58304	636.97681	820.50134	33.25146	641.01892	30.93392	588.37225	-1008.15723	
882	8.810	-678.29364	-24.47525	-580.61829	736.61096	-12.94590	-496.04675	-749.75641	25.38008	637.05945	820.31897	33.11790	640.97034	31.06097	588.44904	-1008.04004	
883	8.820	-678.26776	-24.46168	-580.65283	736.59943	-12.86125	-496.05038	-749.71503	25.27042	637.08203	820.42560	33.06374	640.96014	31.05325	588.53564	-1007.97345	
884	8.830	-678.20825	-24.34043	-580.60535	736.64197	-12.80620	-496.00299	-749.60931	25.18754	637.14728	820.57239	33.01367	640.91400	31.09462	588.61102	-1008.04974	
885	8.840	-678.09094	-24.18368	-580.56458	736.70459	-12.66860	-495.96997	-749.55676	25.12553	637.22058	820.68988	32.97163	641.11084	31.04662	588.81873	-1008.11163	
886	8.850	-678.00903	-24.07017	-580.53320	736.74451	-12.60201	-495.93561	-749.52533	24.97008	637.29773	820.72321	32.90243	641.15045	31.08489	589.09479	-1008.33771	
887	8.860	-678.03851	-23.91434	-580.49536	736.74841	-12.46811	-495.95572	-749.50348	24.83072	637.38788	820.65631	32.70825	641.13611	30.97629	589.26410	-1008.36127	
888	8.870	-678.03827	-23.86856	-580.49512	736.74066	-12.44401	-495.89359	-749.64362	24.65941	637.49359	820.64880	32.46928	641.13452	30.93702	589.44489	-1008.31952	
889	8.880	-678.11340	-23.67316	-580.46857	736.67462	-12.35295	-495.87457	-749.65283	24.43207	637.51990	820.63959	32.32197	641.25696	30.97155	589.64069	-1008.18109	
890	8.890	-678.06793	-23.43699	-580.63733	736.61523	-12.05734	-495.92569	-749.67645	24.41897	637.52795	820.45648	32.19059	641.38538	31.14510	589.99579	-1007.79083	
891	8.900	-677.97467	-23.30906	-580.57458	736.64001	-11.81183	-495.84607	-749.65625	24.33314	637.57324	820.63098	31.76923	641.13885	31.56983	590.34894	-1007.38239	
892	8.910	-678.07495	-23.16627	-580.33722	736.78918	-11.61136	-495.69635	-749.71167	24.18786	637.58325	820.68567	31.56382	641.24109	31.38756	590.74811	-1006.97729	
893	8.920	-678.13403	-22.97476	-580.29041	736.84540	-11.45163	-495.63773	-749.73529	23.94963	637.55701	820.73334	31.15715	641.21869	31.21367	590.98254	-1006.58356	
894	8.930	-678.23572	-22.75111	-580.24512	736.80865	-11.45208	-495.57074	-749.74512	23.66729	637.57782	820.59631	31.16165	641.52765	31.41592	591.29480	-1006.15790	
895	8.940	-678.21710	-22.57172	-580.19141	736.68323	-11.14612	-495.65961	-749.70935	23.54589	637.61853	820.64740	31.05485	641.56714	31.33653	591.55695	-1005.82892	
896	8.950	-678.19208	-22.29091	-580.12708	736.63531	-10.78001	-495.56210	-749.68701	23.34955	637.72308	820.82214	30.69262	641.35736	31.24215	592.01874	-1005.57434	
897	8.960	-678.13556	-22.01803	-580.01965	736.68121	-10.52112	-495.52722	-749.59888	23.13560	637.80634	820.82196	30.67225	641.34381	31.26289	592.47638	-1005.36603	
898	8.970	-678.25842	-21.81872	-580.00171	736.62469	-10.31234	-495.43002	-749.66901	22.78734	637.91406	820.60370	30.31184	641.30408	31.27736	592.75690	-1005.22546	
899	8.980	-678.37793	-21.72416	-579.98627	736.49243	-10.13253	-495.42847	-749.77393	22.45431	637.96796	820.36853	29.97104	641.35541	31.12075	592.98810	-1005.12335	
900	8.990	-678.60748	-21.54485	-579.84729	736.34625	-10.05102	-495.45471	-749.92639	22.19451	638.03796	820.26910	29.74174	641.51752	30.90994	593.33319	-1005.04584	
901	9.000	-678.77771	-21.31110	-579.80396	736.33606	-9.99570	-495.27979	-750.14465	21.91108	638.16168	820.32831	29.52677	641.73090	30.95548	593.63715	-1004.88745	
902	9.010	-678.95044	-21.01439	-579.71448	736.20544	-9.82691	-495.16269	-750.30756	21.75421	638.26532	820.03400	29.47658	642.03674	30.71301	594.25922	-1004.47559	
903	9.020	-679.09918	-20.57023	-579.71655	736.10150	-9.55549	-495.21347	-750.38226	21.68473	638.32422	819.81146	29.11952	642.12762	30.99532	594.89185	-1003.73859	
904	9.030	-679.27850	-20.23154	-579.60406	735.87726	-9.22177	-495.08698	-750.54877	21.53684	638.39417	819.71155	28.94030	642.19110	30.67772	595.26379	-1003.41016	
905	9.040	-679.25360	-20.12291	-579.56854	735.72565	-9.16464	-495.09509	-750.74615	21.11796	638.46881	819.48743	28.78245	642.25739	30.14406	595.53888	-1003.30853	
906	9.050	-679.26031	-19.98104	-579.47675	735.67749	-9.01863	-495.00076	-750.81085	20.66803	638.62537	819.37762	28.57514	642.26709	29.98734	595.90784	-1002.95319	
907	9.060	-679.31427	-19.72867	-579.39838	735.54407	-8.82616	-495.04501	-750.92621	20.40103	638.73395	819.30170	28.01406	642.01105	29.74742	596.51178	-1002.43701	
908	9.070	-679.50470	-19.40892	-579.36658	735.40625	-8.54694	-494.88019	-751.19769	20.13029	638.84430	819.08588	27.54807	642.03082	29.78156	597.01526	-1001.94873	
909	9.080	-679.73578	-19.16973	-579.28473	735.19104	-7.89516	-494.57578	-751.39014	19.91547	638.93231	819.00055	27.51806	642.50659	29.70033	597.61884	-1001.45697	
910	9.090	-679.95801	-18.98802	-579.20166	734.76141	-7.76988	-494.81696	-751.36096	19.76018	639.14587	818.85187	27.29259	642.68719	29.58191	598.09302	-1001.35645	
911	9.100	-680.17218	-18.66626	-579.19098	734.58966	-7.81920	-494.70731	-751.71698	19.51035	639.17407	818.62683	27.09608	642.85181	29.29539	598.51538	-1001.23938	
912	9.110	-680.39099	-18.18726	-579.23236	734.25677	-7.43743	-494.67419	-751.97797	19.17011	639.10919	818.45941	26.79271	642.94397	29.03102	598.97308	-1001.04578	
913	9.120	-680.59039	-17.70926	-579.14868	734.20758	-7.10179	-494.57101	-752.21307	18.74626	639.11078	819.07422	26.04471	642.76172	28.92530	599.45636	-1000.52631	
914	9.130	-680.75787	-17.39210	-578.92249	734.03064	-6.59203	-494.49762	-752.39587	18.50162	639.26721	818.51495	25.71575	642.72876	28.78722	600.04816	-1000.22260	
915	9.140	-680.84656	-17.23956	-578.86847	733.99622	-6.36328	-494.40402	-752.50690	18.41368	639.22601	818.09924	25.60575	643.00970	28.50151	600.67108	-999.68805	
916	9.150	-681.06683	-17.02874	-578.81323	733.84509	-6.11606	-494.33295	-752.47559	17.79629	639.35638	817.59058	25.18259	643.16272	28.31652	601.16406	-999.31482	
917	9.160	-681.22400	-16.73717	-578.81036	733.68054	-5.94299	-494.28290	-752.65308	17.21060	639.35785	817.51813	24.92513	643.27246	28.27541	601.55322	-998.80890	
918	9.170	-681.45013	-16.23634	-578.87079	733.64917	-5.85653	-494.01257	-752.75482	16.80544	639.49493	817.02240	24.64480	643.40588	27.93049	602.20532	-998.16034	
919	9.180	-681.48486	-15.93079	-578.82629	733.50085	-5.53318	-493.98135	-752.90961	16.65237	639.59497	817.37061	24.27244	643.19598	27.82057	602.93317	-997.57422	
920	9.190	-681.66040	-15.46253	-578.50537	733.29956	-5.04227	-493.95004	-753.11768	16.38438	639.76605	817.18536	24.17788	643.34033	27.87660	603.45032	-997.18170	
921	9.200	-681.85773	-15.18663	-578.44678	733.10736	-4.88288	-493.92801	-753.28363	16.02161	639.75513	816.76489	23.56462	643.59796	27.72013	603.87335	-996.85681	
922	9.210	-682.03717	-14.89820	-578.37402	733.17535	-4.99049	-493.71600	-753.47565	15.69722	639.86871	816.32483	23.13825	643.91364	27.15623	604.51074	-996.36841	
923	9.220	-682.25647	-14.59318	-578.26715	732.75159	-4.45031	-493.66034	-753.70453	15.42658	640.03021	816.32239	22.91811	643.82458	27.41872	605.11523	-995.77930	
